<svg xmlns="http://www.w3.org/2000/svg" width="156.859" height="61.745" viewBox="0 0 156.859 61.745"><defs><style>.a{fill:#fff;}.b{fill:#fda800;}.c{fill:#e1302d;}.d{fill:#50b1b5;}</style></defs><g transform="translate(-79.212 -43.227)"><path class="a" d="M100.165,98.246a12.867,12.867,0,0,1,3.423,3.276l-3.423,2.72-1.3,1.062a7.434,7.434,0,0,0-2.627-2.36,7.4,7.4,0,0,0-6.4-.295,7.474,7.474,0,0,0-3.955,3.954,7.171,7.171,0,0,0-.59,2.891v17.525H79.212V95.981h6.079v2.265a13.449,13.449,0,0,1,3.483-1.668,13.4,13.4,0,0,1,7.909,0A13.464,13.464,0,0,1,100.165,98.246Z" transform="translate(0 -31.91)"/><path class="a" d="M156.936,95.81v31.164h-6.079V95.81Z" transform="translate(-43.337 -31.806)"/><path class="a" d="M198.14,112.746a10.224,10.224,0,0,1,1.3,2.568,8.058,8.058,0,0,1,.413,2.921,8.536,8.536,0,0,1-.885,3.6,9.86,9.86,0,0,1-2.184,2.892,9.641,9.641,0,0,1-3.187,1.918,10.085,10.085,0,0,1-3.837.62,10.647,10.647,0,0,1-5.105-1.476,9.043,9.043,0,0,1-3.453-3.6l5.076-3.541a3.31,3.31,0,0,0,1.3,1.8,3.871,3.871,0,0,0,2.361.738,3.931,3.931,0,0,0,2.686-.856,2.8,2.8,0,0,0,1.151-2.272,2.1,2.1,0,0,0-.059-.59v-.118a.473.473,0,0,1-.059-.206.488.488,0,0,0-.059-.207,3.442,3.442,0,0,0-1.535-1.652,2.366,2.366,0,0,0-.531-.236l.059-.059a20.141,20.141,0,0,0-1.83-.915q-1-.442-2.036-.944t-2.036-1.062a11.193,11.193,0,0,1-1.888-1.328v-.059l-.177-.177a8.727,8.727,0,0,1-1.948-2.745,7.378,7.378,0,0,1-.65-3.335,7.88,7.88,0,0,1,.827-3.305,8.692,8.692,0,0,1,2.036-2.656,9.6,9.6,0,0,1,2.981-1.771,9.436,9.436,0,0,1,3.66-.59,10.357,10.357,0,0,1,4.574,1.239,8.625,8.625,0,0,1,3.217,3.01l-4.958,3.423a3.009,3.009,0,0,0-1.151-1.121,3.466,3.466,0,0,0-1.8-.472,3.583,3.583,0,0,0-2.332.649,2.073,2.073,0,0,0-.974,1.712,1.007,1.007,0,0,0,.059.413,2.071,2.071,0,0,0,.59,1.121,3.6,3.6,0,0,0,1.181.768q1.12.65,2.568,1.328t2.922,1.505a9.159,9.159,0,0,1,2.125,1.358l.3.295A12.094,12.094,0,0,1,198.14,112.746Z" transform="translate(-61.581 -31.98)"/><path class="a" d="M249.7,95.81v31.164h-6.079V95.81Z" transform="translate(-99.446 -31.806)"/><path class="a" d="M304.808,79.645a15.331,15.331,0,0,1-1.21,6.079,15.556,15.556,0,0,1-8.293,8.293,15.878,15.878,0,0,1-12.159,0,15.554,15.554,0,0,1-8.293-8.293,15.88,15.88,0,0,1,0-12.159,15.555,15.555,0,0,1,8.293-8.293,15.328,15.328,0,0,1,6.079-1.21,15.055,15.055,0,0,1,5.105.856,16.2,16.2,0,0,1,4.4,2.39V43.227h6.079V79.645Zm-15.552,9.5a9.294,9.294,0,0,0,3.677-.738,9.488,9.488,0,0,0,5.8-8.765v-.059a9.165,9.165,0,0,0-.736-3.66,9.574,9.574,0,0,0-2.03-3.01,9.464,9.464,0,0,0-3.031-2.036,9.535,9.535,0,0,0-7.355,0,9.473,9.473,0,0,0-3.031,2.036,9.917,9.917,0,0,0-2.059,3.039,9.283,9.283,0,0,0,0,7.378,9.893,9.893,0,0,0,2.059,3.039,9.447,9.447,0,0,0,3.031,2.036A9.294,9.294,0,0,0,289.256,89.147Z" transform="translate(-117.608 0)"/><path class="a" d="M373.383,95.81v31.164H367.3V95.81Z" transform="translate(-174.261 -31.806)"/><path class="a" d="M412.911,95.81a15.326,15.326,0,0,1,6.079,1.21,15.552,15.552,0,0,1,8.293,8.293,15.879,15.879,0,0,1,0,12.159,15.553,15.553,0,0,1-8.293,8.293,15.879,15.879,0,0,1-12.159,0,15.553,15.553,0,0,1-8.293-8.293,15.879,15.879,0,0,1,0-12.159,15.552,15.552,0,0,1,8.293-8.293A15.323,15.323,0,0,1,412.911,95.81Zm.03,25.085a9.3,9.3,0,0,0,3.677-.738,9.511,9.511,0,0,0,0-17.53,9.535,9.535,0,0,0-7.355,0,9.483,9.483,0,0,0-3.031,2.036,9.911,9.911,0,0,0-2.059,3.04,9.282,9.282,0,0,0,0,7.378,9.887,9.887,0,0,0,2.059,3.04,9.445,9.445,0,0,0,3.031,2.036A9.293,9.293,0,0,0,412.941,120.9Z" transform="translate(-192.423 -31.806)"/><circle class="b" cx="3.344" cy="3.344" r="3.344" transform="translate(107.216 54.124)"/><circle class="c" cx="3.344" cy="3.344" r="3.344" transform="translate(143.868 98.283)"/><circle class="d" cx="3.344" cy="3.344" r="3.344" transform="translate(192.703 54.078)"/></g></svg>